<svg id="9c6c8999-df3d-469e-b9d8-8b9b57716d52" data-name="Suit &amp; Tie" xmlns="http://www.w3.org/2000/svg" xmlns:xlink="http://www.w3.org/1999/xlink" viewBox="0 0 336 1344"><defs><style>.\30 106d3c0-a650-4ee1-a111-a07eed69d15c,.\37 7fc63a7-2928-49ea-a303-9afeb8389513,.\39 aa5fb8a-4086-4f96-bb1a-7ae048ed70e1{fill:none;}.\38 c41d501-23ab-4a88-b48e-cb445bc55aec{clip-path:url(#103be814-b2bf-422f-9f70-ba039bc31051);}.\30 106d3c0-a650-4ee1-a111-a07eed69d15c{stroke:#dcd4a7;stroke-width:0.25px;}.\30 106d3c0-a650-4ee1-a111-a07eed69d15c,.\39 aa5fb8a-4086-4f96-bb1a-7ae048ed70e1{stroke-miterlimit:10;}.\37 20c3bcc-6de3-46a2-b21a-e3467c0d356c{clip-path:url(#348d64ff-5ee7-49e7-82fb-ad64aca3d3aa);}.\30 c3ac024-6da9-40f3-aafb-45c73fc6f01d{fill:#fff8dc;}.ea21d9d3-f2b5-4dd5-a129-6270ea58608c{fill:#edc942;}.\31 84032a3-1138-4306-beea-f8ec5d607c18{fill:#dcd4a7;}.\35 ef277d8-ac51-4304-92c9-fbf30b097b8f{fill:url(#7ddf0d33-4587-445f-9e03-364b942a3c3d);}.\35 ebe596c-4191-4458-9f05-174f51746f25{fill:#f2f2f3;}.\38 196d302-43fc-4001-8d49-e9358f92d0f4{fill:#103b60;}.\31 51c7a60-74fb-4890-821a-e5e91e73649b{fill:#fff;}.\39 aa5fb8a-4086-4f96-bb1a-7ae048ed70e1{stroke:#231f20;}.\38 2fbae5d-d635-4b3d-935e-a676b24b5537{fill:#231f20;}.\35 33a0079-423c-4ace-8051-4ad8285f30d0{fill:#1f1f1f;}.c4c9458a-9c5c-499f-8a24-75c9ad8435b3{fill:#4b4a4b;}</style><clipPath id="103be814-b2bf-422f-9f70-ba039bc31051"><rect class="77fc63a7-2928-49ea-a303-9afeb8389513" width="30" height="30"/></clipPath><clipPath id="348d64ff-5ee7-49e7-82fb-ad64aca3d3aa" transform="translate(0 0)"><rect class="77fc63a7-2928-49ea-a303-9afeb8389513" width="336" height="1344"/></clipPath><pattern id="7ddf0d33-4587-445f-9e03-364b942a3c3d" data-name="Unnamed Pattern" width="30" height="30" patternTransform="matrix(1, 0, 0, -1, 0, 13718)" patternUnits="userSpaceOnUse" viewBox="0 0 30 30"><rect class="77fc63a7-2928-49ea-a303-9afeb8389513" width="30" height="30"/><g class="8c41d501-23ab-4a88-b48e-cb445bc55aec"><line class="0106d3c0-a650-4ee1-a111-a07eed69d15c" x1="36" y1="12" x2="18" y2="-6"/><line class="0106d3c0-a650-4ee1-a111-a07eed69d15c" x1="42" y1="12" x2="18" y2="-12"/><line class="0106d3c0-a650-4ee1-a111-a07eed69d15c" x1="48" y1="12" x2="18" y2="-18"/><line class="0106d3c0-a650-4ee1-a111-a07eed69d15c" x1="54" y1="12" x2="18" y2="-24"/><line class="0106d3c0-a650-4ee1-a111-a07eed69d15c" x1="60" y1="12" x2="18" y2="-30"/><line class="0106d3c0-a650-4ee1-a111-a07eed69d15c" x1="66" y1="12" x2="18" y2="-36"/><line class="0106d3c0-a650-4ee1-a111-a07eed69d15c" x1="72" y1="12" x2="18" y2="-42"/><line class="0106d3c0-a650-4ee1-a111-a07eed69d15c" x1="72" y1="6" x2="24" y2="-42"/><line class="0106d3c0-a650-4ee1-a111-a07eed69d15c" x1="72" x2="30" y2="-42"/><line class="0106d3c0-a650-4ee1-a111-a07eed69d15c" x1="6" y1="12" x2="-12" y2="-6"/><line class="0106d3c0-a650-4ee1-a111-a07eed69d15c" x1="12" y1="12" x2="-12" y2="-12"/><line class="0106d3c0-a650-4ee1-a111-a07eed69d15c" x1="18" y1="12" x2="-12" y2="-18"/><line class="0106d3c0-a650-4ee1-a111-a07eed69d15c" x1="24" y1="12" x2="-12" y2="-24"/><line class="0106d3c0-a650-4ee1-a111-a07eed69d15c" x1="30" y1="12" x2="-12" y2="-30"/><line class="0106d3c0-a650-4ee1-a111-a07eed69d15c" x1="36" y1="12" x2="-12" y2="-36"/><line class="0106d3c0-a650-4ee1-a111-a07eed69d15c" x1="42" y1="12" x2="-12" y2="-42"/><line class="0106d3c0-a650-4ee1-a111-a07eed69d15c" x1="42" y1="6" x2="-6" y2="-42"/><line class="0106d3c0-a650-4ee1-a111-a07eed69d15c" x1="42" y2="-42"/><line class="0106d3c0-a650-4ee1-a111-a07eed69d15c" y1="12" x2="-42" y2="-30"/><line class="0106d3c0-a650-4ee1-a111-a07eed69d15c" x1="6" y1="12" x2="-42" y2="-36"/><line class="0106d3c0-a650-4ee1-a111-a07eed69d15c" x1="12" y1="12" x2="-42" y2="-42"/><line class="0106d3c0-a650-4ee1-a111-a07eed69d15c" x1="12" y1="6" x2="-36" y2="-42"/><line class="0106d3c0-a650-4ee1-a111-a07eed69d15c" x1="12" x2="-30" y2="-42"/><line class="0106d3c0-a650-4ee1-a111-a07eed69d15c" x1="36" y1="42" x2="18" y2="24"/><line class="0106d3c0-a650-4ee1-a111-a07eed69d15c" x1="42" y1="42" x2="18" y2="18"/><line class="0106d3c0-a650-4ee1-a111-a07eed69d15c" x1="48" y1="42" x2="18" y2="12"/><line class="0106d3c0-a650-4ee1-a111-a07eed69d15c" x1="54" y1="42" x2="18" y2="6"/><line class="0106d3c0-a650-4ee1-a111-a07eed69d15c" x1="60" y1="42" x2="18"/><line class="0106d3c0-a650-4ee1-a111-a07eed69d15c" x1="66" y1="42" x2="18" y2="-6"/><line class="0106d3c0-a650-4ee1-a111-a07eed69d15c" x1="72" y1="42" x2="18" y2="-12"/><line class="0106d3c0-a650-4ee1-a111-a07eed69d15c" x1="72" y1="36" x2="24" y2="-12"/><line class="0106d3c0-a650-4ee1-a111-a07eed69d15c" x1="72" y1="30" x2="30" y2="-12"/><line class="0106d3c0-a650-4ee1-a111-a07eed69d15c" x1="6" y1="42" x2="-12" y2="24"/><line class="0106d3c0-a650-4ee1-a111-a07eed69d15c" x1="12" y1="42" x2="-12" y2="18"/><line class="0106d3c0-a650-4ee1-a111-a07eed69d15c" x1="18" y1="42" x2="-12" y2="12"/><line class="0106d3c0-a650-4ee1-a111-a07eed69d15c" x1="24" y1="42" x2="-12" y2="6"/><line class="0106d3c0-a650-4ee1-a111-a07eed69d15c" x1="30" y1="42" x2="-12"/><line class="0106d3c0-a650-4ee1-a111-a07eed69d15c" x1="36" y1="42" x2="-12" y2="-6"/><line class="0106d3c0-a650-4ee1-a111-a07eed69d15c" x1="42" y1="42" x2="-12" y2="-12"/><line class="0106d3c0-a650-4ee1-a111-a07eed69d15c" x1="42" y1="36" x2="-6" y2="-12"/><line class="0106d3c0-a650-4ee1-a111-a07eed69d15c" x1="42" y1="30" y2="-12"/><line class="0106d3c0-a650-4ee1-a111-a07eed69d15c" x1="42" y1="24" x2="6" y2="-12"/><line class="0106d3c0-a650-4ee1-a111-a07eed69d15c" x1="42" y1="18" x2="12" y2="-12"/><line class="0106d3c0-a650-4ee1-a111-a07eed69d15c" x1="42" y1="12" x2="18" y2="-12"/><line class="0106d3c0-a650-4ee1-a111-a07eed69d15c" x1="42" y1="6" x2="24" y2="-12"/><line class="0106d3c0-a650-4ee1-a111-a07eed69d15c" x1="42" x2="30" y2="-12"/><line class="0106d3c0-a650-4ee1-a111-a07eed69d15c" y1="42" x2="-42"/><line class="0106d3c0-a650-4ee1-a111-a07eed69d15c" x1="6" y1="42" x2="-42" y2="-6"/><line class="0106d3c0-a650-4ee1-a111-a07eed69d15c" x1="12" y1="42" x2="-42" y2="-12"/><line class="0106d3c0-a650-4ee1-a111-a07eed69d15c" x1="12" y1="36" x2="-36" y2="-12"/><line class="0106d3c0-a650-4ee1-a111-a07eed69d15c" x1="12" y1="30" x2="-30" y2="-12"/><line class="0106d3c0-a650-4ee1-a111-a07eed69d15c" x1="12" y1="24" x2="-24" y2="-12"/><line class="0106d3c0-a650-4ee1-a111-a07eed69d15c" x1="12" y1="18" x2="-18" y2="-12"/><line class="0106d3c0-a650-4ee1-a111-a07eed69d15c" x1="12" y1="12" x2="-12" y2="-12"/><line class="0106d3c0-a650-4ee1-a111-a07eed69d15c" x1="12" y1="6" x2="-6" y2="-12"/><line class="0106d3c0-a650-4ee1-a111-a07eed69d15c" x1="12" y2="-12"/><line class="0106d3c0-a650-4ee1-a111-a07eed69d15c" x1="60" y1="72" x2="18" y2="30"/><line class="0106d3c0-a650-4ee1-a111-a07eed69d15c" x1="66" y1="72" x2="18" y2="24"/><line class="0106d3c0-a650-4ee1-a111-a07eed69d15c" x1="72" y1="72" x2="18" y2="18"/><line class="0106d3c0-a650-4ee1-a111-a07eed69d15c" x1="72" y1="66" x2="24" y2="18"/><line class="0106d3c0-a650-4ee1-a111-a07eed69d15c" x1="72" y1="60" x2="30" y2="18"/><line class="0106d3c0-a650-4ee1-a111-a07eed69d15c" x1="30" y1="72" x2="-12" y2="30"/><line class="0106d3c0-a650-4ee1-a111-a07eed69d15c" x1="36" y1="72" x2="-12" y2="24"/><line class="0106d3c0-a650-4ee1-a111-a07eed69d15c" x1="42" y1="72" x2="-12" y2="18"/><line class="0106d3c0-a650-4ee1-a111-a07eed69d15c" x1="42" y1="66" x2="-6" y2="18"/><line class="0106d3c0-a650-4ee1-a111-a07eed69d15c" x1="42" y1="60" y2="18"/><line class="0106d3c0-a650-4ee1-a111-a07eed69d15c" x1="42" y1="54" x2="6" y2="18"/><line class="0106d3c0-a650-4ee1-a111-a07eed69d15c" x1="42" y1="48" x2="12" y2="18"/><line class="0106d3c0-a650-4ee1-a111-a07eed69d15c" x1="42" y1="42" x2="18" y2="18"/><line class="0106d3c0-a650-4ee1-a111-a07eed69d15c" x1="42" y1="36" x2="24" y2="18"/><line class="0106d3c0-a650-4ee1-a111-a07eed69d15c" x1="42" y1="30" x2="30" y2="18"/><line class="0106d3c0-a650-4ee1-a111-a07eed69d15c" y1="72" x2="-42" y2="30"/><line class="0106d3c0-a650-4ee1-a111-a07eed69d15c" x1="6" y1="72" x2="-42" y2="24"/><line class="0106d3c0-a650-4ee1-a111-a07eed69d15c" x1="12" y1="72" x2="-42" y2="18"/><line class="0106d3c0-a650-4ee1-a111-a07eed69d15c" x1="12" y1="66" x2="-36" y2="18"/><line class="0106d3c0-a650-4ee1-a111-a07eed69d15c" x1="12" y1="60" x2="-30" y2="18"/><line class="0106d3c0-a650-4ee1-a111-a07eed69d15c" x1="12" y1="54" x2="-24" y2="18"/><line class="0106d3c0-a650-4ee1-a111-a07eed69d15c" x1="12" y1="48" x2="-18" y2="18"/><line class="0106d3c0-a650-4ee1-a111-a07eed69d15c" x1="12" y1="42" x2="-12" y2="18"/><line class="0106d3c0-a650-4ee1-a111-a07eed69d15c" x1="12" y1="36" x2="-6" y2="18"/><line class="0106d3c0-a650-4ee1-a111-a07eed69d15c" x1="12" y1="30" y2="18"/></g></pattern></defs><title>avatar-suit-and-tie</title><g class="720c3bcc-6de3-46a2-b21a-e3467c0d356c"><rect class="0c3ac024-6da9-40f3-aafb-45c73fc6f01d" y="1296" width="144" height="48"/><rect class="0c3ac024-6da9-40f3-aafb-45c73fc6f01d" x="192" y="1296" width="144" height="48"/><polygon class="0c3ac024-6da9-40f3-aafb-45c73fc6f01d" points="192 336 192 384 144 384 144 336 48 336 48 384 0 384 0 864 48 864 48 768 288 768 288 432 288 864 336 864 336 384 288 384 288 336 192 336"/><polygon class="0c3ac024-6da9-40f3-aafb-45c73fc6f01d" points="288 1296 192 1296 192 816 144 816 144 1296 48 1296 48 768 288 768 288 1296"/><polygon class="0c3ac024-6da9-40f3-aafb-45c73fc6f01d" points="240 288 240 384 96 384 96 48 288 48 288 288 240 288"/><polygon class="ea21d9d3-f2b5-4dd5-a129-6270ea58608c" points="192 0 192 48 96 48 96 192 143 192 144 144 192 144 192 96 288 96 336 96 336 0 192 0"/><rect class="184032a3-1138-4306-beea-f8ec5d607c18" x="144" y="288" width="96" height="48"/><polygon class="5ef277d8-ac51-4304-92c9-fbf30b097b8f" points="288 288 97 288 96 192 144 192 144 240 288 240 288 288"/><polygon class="5ebe596c-4191-4458-9f05-174f51746f25" points="192 336 192 384 144 384 144 336 48 336 48 384 0 384 0 528 48 528 48 768 288 768 288 432 288 528 336 528 336 384 288 384 288 336 192 336"/><polygon class="8196d302-43fc-4001-8d49-e9358f92d0f4" points="288 864 192 864 192 816 144 816 144 864 48 864 48 720 288 720 288 864"/></g><g id="5553cda5-dbf4-4d92-bf98-f52f71caed6f" data-name="Dress Shirt"><polygon id="0f169f11-903d-4be1-8529-1e4b96fe60e2" data-name="Plaid" class="151c7a60-74fb-4890-821a-e5e91e73649b" points="336 767.83 288 767.83 288 783.83 288 479.83 288 783.83 48 783.83 48 479.83 48 671.83 48 767.83 0 767.83 0 383.83 48 383.83 48 335.83 144 335.83 144 383.83 192 383.83 192 335.83 288 335.83 288 383.83 336 383.83 336 767.83"/><line id="ebdea023-5bb8-4bde-aade-db85187bd74c" data-name="Left Lapel" class="9aa5fb8a-4086-4f96-bb1a-7ae048ed70e1" x1="144" y1="335.83" x2="96" y2="383.83"/><line id="e7e5cf9c-da3b-4950-9b7f-ea5c679865ab" data-name="Right Lapel" class="9aa5fb8a-4086-4f96-bb1a-7ae048ed70e1" x1="192" y1="335.83" x2="240" y2="383.83"/><g id="18a5150b-9038-4db8-8693-e75c223e4b09" data-name="Buttons"><rect class="82fbae5d-d635-4b3d-935e-a676b24b5537" x="160" y="399.83" width="16" height="16"/><rect class="82fbae5d-d635-4b3d-935e-a676b24b5537" x="160" y="447.83" width="16" height="16"/><rect class="82fbae5d-d635-4b3d-935e-a676b24b5537" x="160" y="495.83" width="16" height="16"/><rect class="82fbae5d-d635-4b3d-935e-a676b24b5537" x="160" y="543.83" width="16" height="16"/><rect class="82fbae5d-d635-4b3d-935e-a676b24b5537" x="160" y="591.83" width="16" height="16"/><rect class="82fbae5d-d635-4b3d-935e-a676b24b5537" x="160" y="639.83" width="16" height="16"/><rect class="82fbae5d-d635-4b3d-935e-a676b24b5537" x="160" y="687.83" width="16" height="16"/><rect class="82fbae5d-d635-4b3d-935e-a676b24b5537" x="160" y="735.83" width="16" height="16"/></g></g><polyline id="52ae48fe-545f-4ea6-beee-7b2b8f7f511e" data-name="Pants" class="533a0079-423c-4ace-8051-4ad8285f30d0" points="144 816 144 1296 48 1296 48 720 288 720 288 1296 192 1296 192 816"/><rect id="39d65479-4076-48b4-822f-d0d05dbf7a31" data-name="Belt" class="c4c9458a-9c5c-499f-8a24-75c9ad8435b3" x="48" y="714" width="240" height="18"/><g id="e61ce2ce-8d3d-4b73-9ef0-992fa70e9ed6" data-name="Jacket"><polyline id="da211d88-2797-475f-97b8-de36cacb3427" data-name="Left Arm" points="96 831.83 48 831.83 48 479.83 48 671.83 48 751.83 0 751.83 0 383.83 48 383.83 48 335.83 96 335.83"/><polyline id="1415bd8d-b0e5-4c40-bfbb-0bfa13720f18" data-name="Left Arm" points="240 831.83 288 831.83 288 479.83 288 671.83 288 751.83 336 751.83 336 383.83 288 383.83 288 335.83 240 335.83"/><rect id="96018915-e58a-4c64-877c-f554770ae680" data-name="Pocket" class="151c7a60-74fb-4890-821a-e5e91e73649b" x="256" y="447.83" width="48" height="16"/></g><rect id="aace992c-079f-437c-973f-45a4c73e2053" data-name="Tie" class="533a0079-423c-4ace-8051-4ad8285f30d0" x="144" y="335.83" width="48" height="368"/><g id="6b84e83d-0d2f-4f33-8bf6-93d4c3fef9db" data-name="Shoes"><rect id="89a70dd8-306f-4d33-b08d-a1136ba27cf9" data-name="Left Shoe" class="c4c9458a-9c5c-499f-8a24-75c9ad8435b3" y="1296" width="144" height="48"/><rect id="1f813f63-5f8b-441b-8ffb-eac871f1e064" data-name="Right Shoe" class="c4c9458a-9c5c-499f-8a24-75c9ad8435b3" x="192" y="1296" width="144" height="48"/></g></svg>