<svg xmlns="http://www.w3.org/2000/svg" width="562.027" height="383.982" viewBox="0 0 562.027 383.982">
  <title>grantmatch-icon</title>
  <g>
    <polygon points="213.583 149.953 280.977 257.545 427.676 257.545 494.964 149.953 213.583 149.953" fill="#fcaf17"/>
    <polygon points="562.026 257.543 427.676 257.543 349.152 383.982 483.478 383.982 562.026 257.543" fill="#ffde17"/>
    <polygon points="0 107.569 93.755 257.541 228.087 257.541 134.338 107.569 0 107.569" fill="#00aba9"/>
    <polygon points="466.056 107.569 399.269 0.001 67.073 0.001 134.338 107.569 466.056 107.569" fill="#00aeef"/>
    <polygon points="67.073 0 67.073 0 0 107.568 134.338 107.568 67.073 0" fill="#008097"/>
    <polygon points="494.966 149.953 427.683 257.545 562.027 257.545 494.966 149.953" fill="#f58220"/>
  </g>
</svg>
