<svg xmlns="http://www.w3.org/2000/svg" width="900" height="900" viewBox="0 0 900 900">
  <title>Artboard 1</title>
  <g>
    <path d="M372.275,588.106l9.49-1.263c.455-3.366.836-6.184,1.3-9.651l9.6-1.444c.514-3.161.971-5.972,1.111-6.831l13.078-11.092-1.695-2.123c6.4-5.808,21.945,6.544,22-12.047,7.586.805,12.346-1.758,10.48-11.032,8.443,1.091,12.973-1.664,10.887-11.051,8.347,1.051,12.688-2,11.777-7.36l12.918-12.563-1.416-1.546,9.89-2.737V478.075l10.246-1.6c.478-3.249.89-6.059.979-6.663l13.13-10.837-1.971-3.128,10.256-2V434.058l11.034-2.138V412.636l11.214-3.192V390.168l11.2-2.862V367.853l10.509-1.818V345.8l11.414-2.594V323.659h12.719v19.273c-3.82,3.652-6.978,6.671-10.135,9.691l14.837,3.352,12.442-13.985,3.044,1.78V323.675l10.927-1.817V301.085l13.721-.708v44.812l-10.014,2.584,1.553,1.624L607.78,360.58l-2.487-1.626v19.857l-10.641,2.183c-.293,6.473-.587,12.955-.9,19.816-6.222,1.43-13.911,1.3-10.243,11.68H560.642c-5.781-5.928,4.014-18.393-10.049-22.747v21.688l-11.306,3v19.088l-10.549,2.774c.722,8.617,2.8,9.1,29.217,6.767.527-2.939,1.081-6.027,1.707-9.514h11.776c.187,3.826.357,7.3.541,11.062l-10.867,2.682v19.765l-10.959,2.351v30.76l-10.143,1.816,1.563,1.817L531.6,514.656l-1.1-1.081c-2.551,3.307-4.934,6.762-7.7,9.877-2.612,2.941-5.627,5.524-8.188,8.49l-11.3,10.578,1.584,2.193-9.061,1.368c-.517,2.937-1.064,6.046-1.653,9.388l-10.135,2.049v15.913L470.1,587.065l1.445,2.5H451.158c.938,8.333-1.888,12.838-10.6,11.135.368,17.839-13.389,8.171-19.491,12.425L409.322,625.3c-2.388,5.061-3.28,11.477-12.871,8.266-.51,4.086-.864,6.921-1.342,10.748l-19.408.9,1.29,1.813c-3.8,2.982-7.675,5.88-11.367,8.993-1.218,1.027-2.961,2.85-2.709,3.878.409,1.664,2.145,4.069,3.539,4.227,4.667.529,9.43.2,14.681.2.791-3.517,1.479-6.581,2.324-10.342l19.87-.964,2.041-10.333h20.072l1.93-10.8c8.194,1.264,11.793-2.462,10.482-10.871l20.719-1.134c.637-3.431,1.21-6.512,1.842-9.918h11.811c.183,4,.342,7.5.523,11.448L462.1,623.749c1.052,7.75-2.227,11.822-10.606,10.307-.467,3.609-.833,6.435-1.331,10.275l-16.987.768-12.87,13.27-2.068-1.418v17.872h18.26c.639-2.9,1.314-5.969,2.137-9.712h33.314v12.7h-31.91v31.873l-10.225,2.02,1.528,1.864-13.1,12.84v14.74h18.293c.6-2.919,1.233-6,2.081-10.136h19.614c.872-4,1.544-7.079,2.363-10.832,7.006.184,12.445-1.858,13.092-8.928l12.249-13.33,6.029-.7c.486-3.307.944-6.419,1.465-9.958h11.557c.576,3.2,1.135,6.307,1.809,10.051l20.432.913c.274,3.722.528,7.186.545,7.41l-24.351,24.072,1.752,2.8H485.8l1.278,2.28-11.6,11.919-2.048-1.554c-.409,2.807-.819,5.614-1.369,9.385H452.607l1.275,2.173L442.416,768.67l-1.954-1.508c-.412,2.811-.823,5.623-1.179,8.051-6.857,6.117-22.392-6.306-22.406,12.677H396.528c-.539,4.107-.944,7.19-1.455,11.085H374.405c-.567,3.8-1.023,6.848-1.624,10.879H341.457c-.555,3.994-.982,7.065-1.483,10.673H330.19l-7.16-10.234-8.123,10.22c-5.071-.186-9.832,2.54-7.734,11.519H253.567c-1.069,3.973-1.969,7.314-2.948,10.952H165.606l-19.213-21.425-16.615-.808V798.213l8.766-2.142c1.106-5.739.775-13.462,10.711-9.888.982-4.248,1.7-7.365,2.5-10.8l20.62-1.091c.34-7,.653-13.461,1-20.519,18.236.3,7.071-14.449,12.066-22.358,5.861-.159,11.784-1.772,10.164-7.373,4.553-4.661,7.267-7.688,10.251-10.421,2.8-2.564,5.881-4.817,10.751-8.752.013-.08.453-2.9.975-6.245l9.864-1.642c.385-2.987.75-5.818,1.191-9.234l9.557-1.958c.536-3.1,1.074-6.208,1.686-9.742l17.1-.756L274.2,655.974c5.118-2.328,12.152-2.622,8.676-12.764l21.19-1c.63-3.479,1.191-6.583,1.753-9.687l2.265,1.649,12.433-13.421,16.964-.874c.538-3.2,1.006-5.989.973-5.794l15.678-15.641H369.8Z"/>
    <path d="M569.678,379.965l7.609,8.432c1.545-5.934,3.089-11.869,4.862-18.68h-20.1l-1.817,2.866Z"/>
    <path d="M327.966,675.867l-9.4,6.02c3.619,1.589,7.177,4.215,10.876,4.432,2.858.168,5.894-2.682,8.85-4.191Z"/>
    <path d="M350.146,677.748l9.813-6.263c-3.37-1.556-6.7-4.222-10.121-4.332-2.96-.1-6.013,2.707-9.025,4.229Z"/>
    <path d="M660.062,124.391v77.666l-10.786,2.818v30.458H635.935c0-5.365.372-10.436-.2-15.4-.205-1.8-2.66-3.341-4.088-5-1.464,1.61-3.966,3.087-4.191,4.855-.594,4.667-.2,9.459-.2,14.9l-10.906,3v30.289l-11.058,3.253v19.254h-12.67V268.528l10.238-2.111v-31L613.93,232.9V213.527l10.578-2.442V182.714l-10.387-3.1v-18.8L603.4,158.221V138.743l-11-2.773V119.3l-22.282-18.975c-.027-.167-.481-2.994-.979-6.1l-9.868-2.181V59.24c18.4-4.276,22.529-2.9,25.1,8.69l19.961.958c.557,3.34,1.07,6.415,1.7,10.215l20.021.9c.721,3.386,1.376,6.465,2.031,9.544l2.306-1.476c2.726,3.633,5.051,7.7,8.313,10.756,2.368,2.222,5.978,3.118,10.293,5.218V122.8Z"/>
    <path d="M660.262,425.237v30.679l-9.779,2.161,1.453,1.484-10.8,11.415-2.346-1.608c-.408,6.48-.816,12.961-1.26,20-5.692,1.518-13.878.758-10.158,10.7l-10.309,1.946c-.554,3-1.13,6.124-1.749,9.475l-9.3,1.565L604.4,523.317H587.474L567.81,545.15l-2.76.457-11.612,13.309-2.761-1.8-1.122,21.33H529c-1.471,6.345-.383,14.875-11.4,10.572.312,9.926-3.366,14.119-13.16,10.427V580.435l12.981-12.621c5.8-1.728,10.4-4.619,8.506-13.059l21.764-1.236V535.7l11.053-7.639-10.313-7.67v-9.564l11.249-.8c.551,2.869.561,5.448,1.6,7.506a7.167,7.167,0,0,0,4.445,3.4c1.055.208,3.686-1.839,3.659-2.822-.164-6.068,2.75-7.881,8.409-8.84,1.942-.329,3.037-5.664,5.444-7.587l8.447-8.435-19.1-4.1c.335,11.164-3.945,14.42-13.19,10.771V477.751l20.265-.944c.75-3.358,1.435-6.422,2.342-10.486h20.346c.4-7.767.755-14.54,1.123-21.621l9.909-1.814c.394-3.138.749-5.961,1.117-8.891l10.29-2.243V412.3l10.77-2.722V389.347l21.862-1.263c.5-3.392.948-6.454,1.485-10.111h19.714c.9-3.548,1.66-6.56,2.632-10.4l11.408-.705c.3,4.048.552,7.491.847,11.483l-11.13,3.072v18.974l-10.568,2.785c-.283,6.322-.575,12.836-.892,19.91Z"/>
    <path d="M727.464,335.307l-7.635-10.232-7.429,9.686c-4.942-.368-9.953,2.391-8.994,7.595l-14.561,15.066H669.64c-.225-3.9-.429-7.42-.474-8.2l13.64-13.077q-.75-.84-1.5-1.681l10.027-2.569V312.883l10.812-2.354V245.98h24.324c0,5.815-.356,10.942.181,15.972.2,1.917,2.46,3.614,3.78,5.412,1.611-1.885,4.3-3.607,4.613-5.688.7-4.64.219-9.459.219-14.525,5.772-2.584,15.366-1.182,10.74-12.462h13.161v20.154l11.057,2.938V279.34l-10.272,2.14v42.076l-10.881,2.72L747.547,329l11.438,6.923v9.86H747.144c-.477-2.993-.97-6.088-1.533-9.616Z"/>
    <path d="M746.158,267.208l1.4,1.474c-1.383.35-2.962.39-4.1,1.118a64.435,64.435,0,0,0-5.772,4.592c2.21,1.245,4.312,3.23,6.652,3.569,4.077.59,8.3.164,12.608.164V260.106l-2.537-1.977Z"/>
    <path d="M723.83,356.248h24.338v30.777l10.9,2.767v33.556h-9.742l-7.378-10L734.282,423.8h-20.42V402.225l10.25-7.216-10.563-7.074v-9.047L723.83,376.9Z"/>
    <path d="M647.724,599.936l-8.423,1.371q.6.915,1.2,1.828l-15.57,16.834,1.237,1.889-9.026,1.477c-.563,2.953-1.157,6.068-1.867,9.788l-9.558,1.312c-.345,3.343-.638,6.179-.991,9.6l-10.282,1.607c1.338,7.8-2.145,11.639-7.128,10.912l-12.747,12.9.115.3L561.741,681.79c.954,5.331-2.783,8.843-11.043,7.36-.415,3.62-.738,6.441-1.15,10.029h-12.2c-.194-3.727-.378-7.232-.593-11.358l10.47-1.945c.393-3.028.8-6.147,1.284-9.88,7.252.211,13.1-1.248,11.173-7.239l12.826-12.715,10.613-9.927-1.84-2.472,9.978-1.852c.426-3.1.855-6.214,1.371-9.972,8.643,1.484,11.9-2.544,10.457-11.145,8.637,1.249,12.515-2.211,11.67-7.107l12.888-12.537c5.35-2.1,11.04-3.8,8.184-13.211,8.664.5,13.926-1.513,11.064-10.576l10.415-1.438c.5-3.066,1-6.16,1.614-9.9,7.513.647,12.558-1.661,9.858-11.086l12.813-.654c.308,4.177.564,7.642.633,8.567L668.6,575.569l1.656,2.4-9.013,1.213c-.52,2.972-1.068,6.1-1.194,6.817l-13.206,10.8Z"/>
    <path d="M691.237,494.488V482.154l13.628-13.4-1.45-2.079h7.642l12.99,13.365,1.82-1.441v11.148l-10.928.492c-2.64-10.1-2.64-10.1-10.1-9.388v16.884l9.915,2.124v12.517c-8.738,0-17.105-.346-25.409.221-2.343.161-4.5,3-6.748,4.605,2.156,1.34,4.2,3.538,6.491,3.84,4.615.607,9.366.18,14.741.18.259,4.52.461,8.031.695,12.117l-10.358,2.132c-.49,2.828-1.022,5.9-1.627,9.4h-12.1V524.552L669.71,522.7v-8.937Z"/>
    <path d="M681.875,243.951l10.985,2.358c.169,3.433.341,6.905.567,11.482H669.794V223.7h12.081Z"/>
    <path d="M737,467.926H725.129v-20.8l12.585-10.6q-.812-1.374-1.624-2.747h11.892v11.085l-9.96,2.334C737.69,453.956,737.374,460.387,737,467.926Z"/>
    <path d="M682.582,177.315,669.44,166.45v-8.363h12.183c.465,2.944.942,5.959,1.459,9.223l20.717,1.072c.241,3.941.454,7.413.724,11.82H681.779Q682.181,178.759,682.582,177.315Z"/>
    <path d="M758.126,356.336h11.721V379.4H758.126Z"/>
    <path d="M748.159,211.739v12.586h-12.1l-1.411-8.887-9.885-1.787c-.192-3.639-.376-7.121-.614-11.628l11.3-.784C738.762,205.957,736.25,216.629,748.159,211.739Z"/>
    <path d="M581.669,300.448l12.011.541v12.027H581.669Z"/>
    <path d="M493.984,600.165H482.5V588.052h11.483Z"/>
    <path d="M658.636,322.677l12.135.633v11.636H658.636Z"/>
    <path d="M637.814,279.057v11.492H625.539c-.181-3.761-.347-7.2-.554-11.492Z"/>
    <path d="M351.849,722.621l-.034-.274,13.828-14.28h15.866c.893-4.112,1.547-7.116,2.308-10.619h19.726c.56-3.663,1.034-6.76,1.092-7.145l10.612-8.453L404.9,675.266c-.278-1.422-.88-4.508-1.544-7.9H385.7l-1.805,3.045,11.873,8.524c-.177,2.351-.44,5.848-.715,9.5h-9.419l-7.823-10.42-7.456,10.638-18.072.8c-.651,3.506-1.224,6.594-1.864,10.039l-19.907.915c-.785,3.606-1.451,6.663-2.182,10.017l-19.825,1c-1.04,3.749-1.893,6.825-2.952,10.639h-18.62l-3.23,11.232H264.6c-1.125,3.953-2.062,7.249-3.128,11H242.092c-.664,3.641-1.228,6.732-1.879,10.306l-19.9.883,1.518,2.063L208.272,770.8c-.175,3.731-.478,10.206-.767,16.368L197.39,789.44v17.6l9.6,1.65c.807,3.524,1.509,6.588,2.184,9.532h18.017l1.925-9.881,2.584,1.93,9.77-10.507-.1-.075,11.645-11.955q-.621-1.11-1.241-2.22H268.1l18.857-21.483,17.469-.867c.576-7.7,1.058-14.149,1.585-21.209l11.179.61c.916,3.818,1.642,6.842,2.3,9.591h18.863v-20.1l2.158,1.35Z" fill="#fff"/>
  </g>
</svg>
