<?xml version="1.0" standalone="no"?>
<!DOCTYPE svg PUBLIC "-//W3C//DTD SVG 20010904//EN"
 "http://www.w3.org/TR/2001/REC-SVG-20010904/DTD/svg10.dtd">
<svg version="1.0" xmlns="http://www.w3.org/2000/svg"
 width="260.000000pt" height="260.000000pt" viewBox="0 0 260.000000 260.000000"
 preserveAspectRatio="xMidYMid meet">
<metadata>
Created by potrace 1.11, written by Peter Selinger 2001-2013
</metadata>
<g transform="translate(0.000000,260.000000) scale(0.100000,-0.100000)"
fill="#000000" stroke="none">
<path d="M849 2533 c-3 -25 -6 -52 -7 -85 l-2 -38 -140 0 -140 0 0 -29 c0 -26
-3 -29 -46 -35 -26 -3 -86 -6 -134 -6 l-87 0 -6 -182 c-4 -99 -7 -212 -7 -250
l0 -68 35 0 c33 0 35 -2 35 -35 0 -33 2 -35 34 -35 32 0 34 -2 40 -46 3 -26 6
-66 6 -90 0 -42 1 -44 30 -44 l30 0 0 -195 0 -195 35 0 35 0 0 -125 0 -124
-137 -3 -138 -3 -3 -62 -3 -63 -69 0 -70 0 0 -95 0 -95 -35 0 c-32 0 -35 -2
-35 -30 0 -28 -3 -30 -35 -30 l-35 0 0 -285 0 -285 1300 0 1300 0 0 285 0 285
-70 0 -70 0 0 30 c0 28 -3 30 -35 30 -32 0 -35 3 -35 29 0 29 -1 29 -70 36
l-70 7 0 59 0 59 -105 0 -105 0 0 35 c0 33 -2 35 -35 35 l-35 0 0 90 0 89 -67
3 -68 3 -3 63 -3 62 -69 0 -70 0 0 65 0 65 35 0 35 0 0 98 c0 55 3 140 6 190
l7 92 28 0 29 0 0 130 0 130 -35 0 -35 0 0 60 0 60 -35 0 -35 0 0 124 0 123
-139 8 -140 7 -3 31 -3 31 -67 -3 -68 -2 0 30 0 31 -122 0 c-68 0 -147 3 -175
6 -50 6 -53 8 -53 35 0 26 -3 29 -35 29 -19 0 -35 -3 -36 -7z m-429 -223 c0
-17 -6 -20 -37 -18 -37 1 -37 1 -5 5 19 3 32 10 32 19 0 8 2 14 5 14 3 0 5 -9
5 -20z m-73 -77 c-3 -10 -5 -2 -5 17 0 19 2 27 5 18 2 -10 2 -26 0 -35z m140
-610 c-2 -16 -4 -3 -4 27 0 30 2 43 4 28 2 -16 2 -40 0 -55z"/>
</g>
</svg>
